# xmcd CD database file
#
# Track frame offsets:
#	150
#	15655
#	32761
#	59734
#	77849
#	102558
#	126032
#	136824
#	149978
#	166510
#	183161
#	194636
#	206258
#	234014
#	261680
#	332550
#
# Disc length: 4440 seconds
#
# Revision: 0
# Processed by: cddbd v1.5.1PL0 Copyright (c) Steve Scherf et al.
# Submitted via: CDex 1.40Release
#
DISCID=e7115610
DTITLE=かかし - 万　博
DYEAR=2004
DGENRE=Techno
TTITLE0=ダッチワイフ
TTITLE1=ハンチング
TTITLE2=アルバイトの唄
TTITLE3=ロング・ヘアード・ボーイ
TTITLE4=妄想族
TTITLE5=不幸子
TTITLE6=セタップ！仮面ライダーＸ　（戦え！！ジューシー７のテーマ）
TTITLE7=こんにちはフランシーヌさん
TTITLE8=無縁仏
TTITLE9=パリジェンヌ
TTITLE10=南国兄弟
TTITLE11=セックス
TTITLE12=センチメンタルガール
TTITLE13=のど仏
TTITLE14=15
TTITLE15=16
EXTD=YEAR: 2004 ID3G: 18
EXTT0=
EXTT1=
EXTT2=
EXTT3=
EXTT4=
EXTT5=
EXTT6=
EXTT7=
EXTT8=
EXTT9=
EXTT10=
EXTT11=
EXTT12=
EXTT13=
EXTT14=
EXTT15=
PLAYORDER=
